# xmcd
#
# Track frame offsets: 
#        150
#        22023
#        44994
#        60298
#        80624
#        94809
#        109453
#        133362
#        157645
#        174534
#        197669
#        215838
#        251037
#        272124
#        305816
#
# Disc length: 4419 seconds
#
# Revision: 0
# Processed by: cddbd v1.5.2PL0 Copyright (c) Steve Scherf et al.
# Submitted via: ExactAudioCopy v1.0b1
#
DISCID=e511410f
DTITLE=Clifton Chenier - Live at Grant St., Lafayette, LA, April 28, 1
DTITLE=981
DYEAR=1981
DGENRE=Blues
TTITLE0=Mon Fait Mon L'Ide
TTITLE1=You Got Me Cryin'
TTITLE2=Wrap It Up, Baby
TTITLE3=What Am I Living For?
TTITLE4=My God Jumped a Rabbit
TTITLE5=All The Things I Do For You
TTITLE6=Zydeco Rock
TTITLE7=I'm Back Home
TTITLE8=Ay-Ye-Ye Zydeco
TTITLE9=You Don't Have To Go
TTITLE10=Mardi Gras Zydeco
TTITLE11=I Got The Blues
TTITLE12=Johnny Can't Dance
TTITLE13=Tout Chacun Apres Parler
TTITLE14='Tit Mama's Zydeco
EXTD=
EXTT0=
EXTT1=
EXTT2=
EXTT3=
EXTT4=
EXTT5=
EXTT6=
EXTT7=
EXTT8=
EXTT9=
EXTT10=
EXTT11=
EXTT12=
EXTT13=
EXTT14=
PLAYORDER=
